<?xml version="1.0" encoding="UTF-8" standalone="no"?>
<svg
   xmlns:dc="http://purl.org/dc/elements/1.1/"
   xmlns:cc="http://creativecommons.org/ns#"
   xmlns:rdf="http://www.w3.org/1999/02/22-rdf-syntax-ns#"
   xmlns:svg="http://www.w3.org/2000/svg"
   xmlns="http://www.w3.org/2000/svg"
   xmlns:sodipodi="http://sodipodi.sourceforge.net/DTD/sodipodi-0.dtd"
   xmlns:inkscape="http://www.inkscape.org/namespaces/inkscape"
   viewBox="0 0 448 512"
   id="svg2"
   version="1.1"
   inkscape:version="0.91 r13725"
   sodipodi:docname="bars.svg">
  <metadata
     id="metadata10">
    <rdf:RDF>
      <cc:Work
         rdf:about="">
        <dc:format>image/svg+xml</dc:format>
        <dc:type
           rdf:resource="http://purl.org/dc/dcmitype/StillImage" />
      </cc:Work>
    </rdf:RDF>
  </metadata>
  <defs
     id="defs8" />
  <sodipodi:namedview
     pagecolor="#ffffff"
     bordercolor="#666666"
     borderopacity="1"
     objecttolerance="10"
     gridtolerance="10"
     guidetolerance="10"
     inkscape:pageopacity="0"
     inkscape:pageshadow="2"
     inkscape:window-width="1920"
     inkscape:window-height="1048"
     id="namedview6"
     showgrid="false"
     inkscape:zoom="1.9059881"
     inkscape:cx="167.51193"
     inkscape:cy="371.81525"
     inkscape:window-x="0"
     inkscape:window-y="32"
     inkscape:window-maximized="1"
     inkscape:current-layer="svg2" />
  <path
     d="m 16,132.46623 416,0 c 8.837,0 16,-7.163 16,-16 l 0,-40.00001 c 0,-8.837 -7.163,-16 -16,-16 l -416,0 c -8.837,0 -16,7.163 -16,16 l 0,40.00001 c 0,8.837 7.163,16 16,16 z m 0,160 416,0 c 8.837,0 16,-7.163 16,-16 l 0,-40 c 0,-8.837 -7.163,-16 -16,-16 l -416,0 c -8.837,0 -16,7.163 -16,16 l 0,40 c 0,8.837 7.163,16 16,16 z m 0,160 416,0 c 8.837,0 16,-7.163 16,-16 l 0,-40 c 0,-8.837 -7.163,-16 -16,-16 l -416,0 c -8.837,0 -16,7.163 -16,16 l 0,40 c 0,8.837 7.163,16 16,16 z"
     id="path4"
     inkscape:connector-curvature="0"
     style="fill:#ffffff" />
  <path
     style="color:#000000;clip-rule:nonzero;display:inline;overflow:visible;visibility:visible;opacity:0.78399999;isolation:auto;mix-blend-mode:normal;color-interpolation:sRGB;color-interpolation-filters:linearRGB;solid-color:#000000;solid-opacity:1;fill:#ffff00;fill-opacity:0.67759561;fill-rule:nonzero;stroke:none;stroke-width:20;stroke-linecap:butt;stroke-linejoin:miter;stroke-miterlimit:4;stroke-dasharray:none;stroke-dashoffset:0;stroke-opacity:1;color-rendering:auto;image-rendering:auto;shape-rendering:auto;text-rendering:auto;enable-background:accumulate"
     d=""
     id="path4206"
     inkscape:connector-curvature="0" />
</svg>
